<svg xmlns="http://www.w3.org/2000/svg" viewBox="0 0 1024 1024">
  <defs>
    <linearGradient id="bg" x1="164" y1="96" x2="860" y2="928" gradientUnits="userSpaceOnUse">
      <stop offset="0" stop-color="#26E7D1"/>
      <stop offset="0.48" stop-color="#167C9B"/>
      <stop offset="1" stop-color="#2437D8"/>
    </linearGradient>
    <radialGradient id="glow" cx="34%" cy="18%" r="74%">
      <stop offset="0" stop-color="#FFFFFF" stop-opacity="0.28"/>
      <stop offset="0.58" stop-color="#FFFFFF" stop-opacity="0"/>
    </radialGradient>
    <linearGradient id="screen" x1="260" y1="216" x2="764" y2="620" gradientUnits="userSpaceOnUse">
      <stop offset="0" stop-color="#0B2346"/>
      <stop offset="1" stop-color="#10275A"/>
    </linearGradient>
    <linearGradient id="caption" x1="278" y1="526" x2="746" y2="774" gradientUnits="userSpaceOnUse">
      <stop offset="0" stop-color="#FFFFFF"/>
      <stop offset="1" stop-color="#E5FBFF"/>
    </linearGradient>
    <linearGradient id="line" x1="310" y1="558" x2="714" y2="712" gradientUnits="userSpaceOnUse">
      <stop offset="0" stop-color="#132E63"/>
      <stop offset="1" stop-color="#1B6F8C"/>
    </linearGradient>
    <filter id="shadow" x="-16%" y="-16%" width="132%" height="132%">
      <feDropShadow dx="0" dy="28" stdDeviation="34" flood-color="#06162C" flood-opacity="0.30"/>
    </filter>
  </defs>

  <rect width="1024" height="1024" rx="224" fill="url(#bg)"/>
  <rect width="1024" height="1024" rx="224" fill="url(#glow)"/>

  <g filter="url(#shadow)">
    <g transform="translate(-34 -30)">
      <rect x="188" y="220" width="648" height="438" rx="104" fill="url(#screen)"/>
      <rect x="260" y="296" width="256" height="28" rx="14" fill="#46F3DF" opacity="0.92"/>
      <rect x="260" y="354" width="178" height="22" rx="11" fill="#FFFFFF" opacity="0.24"/>
      <path d="M590 350c0-24 26-39 47-27l118 68c21 12 21 42 0 54l-118 68c-21 12-47-3-47-27V350z" fill="#EAFBFF"/>
    </g>

    <g transform="matrix(1.08 0 0 1.08 29 20)">
      <path
        d="M244 544c0-56 46-102 102-102h332c56 0 102 46 102 102v128c0 56-46 102-102 102H512L383 850c-22 13-50-3-50-28v-52c-50-7-89-50-89-102V544z"
        fill="url(#caption)"
      />
      <rect x="326" y="566" width="372" height="32" rx="16" fill="url(#line)" opacity="0.88"/>
      <rect x="326" y="632" width="300" height="32" rx="16" fill="#1E87A7" opacity="0.84"/>
      <rect x="652" y="632" width="58" height="32" rx="16" fill="#26E7D1" opacity="0.95"/>
      <rect x="326" y="698" width="210" height="26" rx="13" fill="#132E63" opacity="0.16"/>
    </g>
  </g>
</svg>
